<?xml version="1.0" standalone="no"?>
<!DOCTYPE svg PUBLIC "-//W3C//DTD SVG 20010904//EN"
 "http://www.w3.org/TR/2001/REC-SVG-20010904/DTD/svg10.dtd">
<svg version="1.0" xmlns="http://www.w3.org/2000/svg"
 width="400.000000pt" height="400.000000pt" viewBox="0 0 400.000000 400.000000"
 preserveAspectRatio="xMidYMid meet">

<g transform="translate(0.000000,400.000000) scale(0.100000,-0.100000)"
fill="#000000" stroke="none">
<path d="M0 2000 l0 -2000 2000 0 2000 0 0 2000 0 2000 -2000 0 -2000 0 0
-2000z m2685 1213 c26 -25 13 -97 -34 -199 -75 -159 -180 -279 -328 -374 -55
-35 -70 -49 -62 -60 30 -49 -7 -125 -123 -247 -127 -134 -193 -211 -274 -323
-62 -84 -94 -133 -179 -270 -45 -73 -33 -71 47 6 226 216 397 314 549 314 55
0 80 -5 110 -22 119 -67 101 -274 -38 -440 -87 -104 -251 -227 -386 -288 -145
-66 -366 -123 -526 -136 -99 -8 -113 -18 -136 -97 -18 -63 -29 -74 -110 -115
-78 -39 -105 -47 -105 -31 0 6 34 70 75 142 42 71 74 130 73 131 -2 1 -22 14
-46 29 -37 24 -41 30 -32 47 13 24 12 24 52 0 18 -11 40 -20 48 -20 13 1 362
599 541 930 122 226 328 554 438 699 82 107 149 179 228 244 115 93 181 117
218 80z m35 -2261 c0 -31 -26 -32 -722 -32 -384 0 -698 4 -698 8 0 31 26 32
722 32 384 0 698 -4 698 -8z"/>
<path d="M2517 3060 c-185 -200 -382 -469 -507 -695 l-33 -60 91 89 c109 107
119 124 105 171 -13 41 -12 43 78 113 123 96 246 246 294 357 27 65 35 85 31
85 -2 0 -29 -27 -59 -60z"/>
<path d="M2098 1932 c-170 -86 -381 -271 -544 -477 -92 -116 -159 -213 -153
-219 2 -3 53 4 112 14 248 43 436 131 585 274 121 115 190 234 199 344 5 51 3
66 -12 82 -30 33 -97 27 -187 -18z"/>
</g>
</svg>
